<svg width="16" height="16" viewBox="0 0 16 16" fill="none" xmlns="http://www.w3.org/2000/svg">
<path d="M9.29684 7.99999L14.8062 2.49026C15.1638 2.13274 15.1638 1.55267 14.8062 1.19381C14.4487 0.834954 13.8686 0.836296 13.5098 1.19381L8.00005 6.70321L2.49032 1.19381C2.13281 0.836296 1.55273 0.836296 1.19387 1.19381C0.835015 1.55132 0.836357 2.1314 1.19387 2.49026L6.70327 7.99999L1.19387 13.5097C0.836357 13.8672 0.836357 14.4473 1.19387 14.8062C1.37246 14.9851 1.60778 15.0744 1.84142 15.0744C2.07641 15.0744 2.31039 14.9851 2.48898 14.8062L8.00005 9.29677L13.5098 14.8062C13.6884 14.9851 13.9237 15.0744 14.1573 15.0744C14.391 15.0744 14.6263 14.9851 14.8049 14.8062C15.1624 14.4487 15.1624 13.8686 14.8049 13.5097L9.29684 7.99999Z" fill="white"/>
</svg>
